<mxfile host="app.diagrams.net" agent="Mozilla/5.0 (Windows NT 10.0; Win64; x64) AppleWebKit/537.36 (KHTML, like Gecko) Chrome/126.0.0.0 Safari/537.36 OPR/112.0.0.0" version="24.7.6">
  <diagram name="Página-1" id="jXNUiGjEmK9u0UshFNRE">
    <mxGraphModel dx="1380" dy="738" grid="1" gridSize="10" guides="1" tooltips="1" connect="1" arrows="1" fold="1" page="1" pageScale="1" pageWidth="827" pageHeight="1169" math="0" shadow="0">
      <root>
        <mxCell id="0" />
        <mxCell id="1" parent="0" />
        <mxCell id="2B-mcIdksEckaIwedj74-1" value="Computador 1" style="fontColor=#0066CC;verticalAlign=top;verticalLabelPosition=bottom;labelPosition=center;align=center;html=1;outlineConnect=0;fillColor=#CCCCCC;strokeColor=#6881B3;gradientColor=none;gradientDirection=north;strokeWidth=2;shape=mxgraph.networks.pc;" vertex="1" parent="1">
          <mxGeometry x="190" y="120" width="60" height="50" as="geometry" />
        </mxCell>
        <mxCell id="2B-mcIdksEckaIwedj74-2" value="Computador 2" style="fontColor=#0066CC;verticalAlign=top;verticalLabelPosition=bottom;labelPosition=center;align=center;html=1;outlineConnect=0;fillColor=#CCCCCC;strokeColor=#6881B3;gradientColor=none;gradientDirection=north;strokeWidth=2;shape=mxgraph.networks.pc;" vertex="1" parent="1">
          <mxGeometry x="470" y="120" width="60" height="50" as="geometry" />
        </mxCell>
        <mxCell id="2B-mcIdksEckaIwedj74-3" value="" style="fontColor=#0066CC;verticalAlign=top;verticalLabelPosition=bottom;labelPosition=center;align=center;html=1;outlineConnect=0;fillColor=#CCCCCC;strokeColor=#6881B3;gradientColor=none;gradientDirection=north;strokeWidth=2;shape=mxgraph.networks.switch;" vertex="1" parent="1">
          <mxGeometry x="320" y="190" width="70" height="20" as="geometry" />
        </mxCell>
        <mxCell id="2B-mcIdksEckaIwedj74-5" value="Computador 3" style="fontColor=#0066CC;verticalAlign=top;verticalLabelPosition=bottom;labelPosition=center;align=center;html=1;outlineConnect=0;fillColor=#CCCCCC;strokeColor=#6881B3;gradientColor=none;gradientDirection=north;strokeWidth=2;shape=mxgraph.networks.laptop;" vertex="1" parent="1">
          <mxGeometry x="180" y="240" width="70" height="50" as="geometry" />
        </mxCell>
        <mxCell id="2B-mcIdksEckaIwedj74-11" value="" style="endArrow=none;html=1;rounded=0;entryX=0.85;entryY=0.5;entryDx=0;entryDy=0;entryPerimeter=0;exitX=0.1;exitY=1;exitDx=0;exitDy=0;exitPerimeter=0;" edge="1" parent="1" source="2B-mcIdksEckaIwedj74-3" target="2B-mcIdksEckaIwedj74-5">
          <mxGeometry width="50" height="50" relative="1" as="geometry">
            <mxPoint x="390" y="410" as="sourcePoint" />
            <mxPoint x="440" y="360" as="targetPoint" />
          </mxGeometry>
        </mxCell>
        <mxCell id="2B-mcIdksEckaIwedj74-12" value="" style="endArrow=none;html=1;rounded=0;entryX=0;entryY=0.5;entryDx=0;entryDy=0;entryPerimeter=0;" edge="1" parent="1" source="2B-mcIdksEckaIwedj74-3" target="2B-mcIdksEckaIwedj74-2">
          <mxGeometry width="50" height="50" relative="1" as="geometry">
            <mxPoint x="365" y="165" as="sourcePoint" />
            <mxPoint x="250" y="275" as="targetPoint" />
          </mxGeometry>
        </mxCell>
        <mxCell id="2B-mcIdksEckaIwedj74-13" value="Servidor de Arquivos" style="fontColor=#0066CC;verticalAlign=top;verticalLabelPosition=bottom;labelPosition=center;align=center;html=1;outlineConnect=0;fillColor=#CCCCCC;strokeColor=#6881B3;gradientColor=none;gradientDirection=north;strokeWidth=2;shape=mxgraph.networks.server;" vertex="1" parent="1">
          <mxGeometry x="475" y="225" width="50" height="80" as="geometry" />
        </mxCell>
        <mxCell id="2B-mcIdksEckaIwedj74-14" value="" style="endArrow=none;html=1;rounded=0;entryX=0;entryY=0.5;entryDx=0;entryDy=0;entryPerimeter=0;" edge="1" parent="1" source="2B-mcIdksEckaIwedj74-3" target="2B-mcIdksEckaIwedj74-13">
          <mxGeometry width="50" height="50" relative="1" as="geometry">
            <mxPoint x="365" y="165" as="sourcePoint" />
            <mxPoint x="250" y="275" as="targetPoint" />
          </mxGeometry>
        </mxCell>
        <mxCell id="2B-mcIdksEckaIwedj74-15" value="" style="endArrow=none;html=1;rounded=0;entryX=1;entryY=0.5;entryDx=0;entryDy=0;entryPerimeter=0;" edge="1" parent="1" source="2B-mcIdksEckaIwedj74-3" target="2B-mcIdksEckaIwedj74-1">
          <mxGeometry width="50" height="50" relative="1" as="geometry">
            <mxPoint x="365" y="190" as="sourcePoint" />
            <mxPoint x="480" y="155" as="targetPoint" />
          </mxGeometry>
        </mxCell>
        <mxCell id="2B-mcIdksEckaIwedj74-17" value="Impressora" style="fontColor=#0066CC;verticalAlign=top;verticalLabelPosition=bottom;labelPosition=center;align=center;html=1;outlineConnect=0;fillColor=#CCCCCC;strokeColor=#6881B3;gradientColor=none;gradientDirection=north;strokeWidth=2;shape=mxgraph.networks.printer;" vertex="1" parent="1">
          <mxGeometry x="570" y="110" width="60" height="70" as="geometry" />
        </mxCell>
        <mxCell id="2B-mcIdksEckaIwedj74-18" value="" style="endArrow=none;html=1;rounded=0;entryX=1;entryY=0.5;entryDx=0;entryDy=0;entryPerimeter=0;" edge="1" parent="1" source="2B-mcIdksEckaIwedj74-17" target="2B-mcIdksEckaIwedj74-2">
          <mxGeometry width="50" height="50" relative="1" as="geometry">
            <mxPoint x="386" y="200" as="sourcePoint" />
            <mxPoint x="480" y="155" as="targetPoint" />
          </mxGeometry>
        </mxCell>
        <mxCell id="2B-mcIdksEckaIwedj74-27" value="" style="group" vertex="1" connectable="0" parent="1">
          <mxGeometry x="70" y="100" width="84" height="90" as="geometry" />
        </mxCell>
        <mxCell id="2B-mcIdksEckaIwedj74-19" value="" style="rounded=1;whiteSpace=wrap;html=1;" vertex="1" parent="2B-mcIdksEckaIwedj74-27">
          <mxGeometry width="84" height="90" as="geometry" />
        </mxCell>
        <mxCell id="2B-mcIdksEckaIwedj74-20" value="João" style="sketch=0;outlineConnect=0;fontColor=#232F3E;gradientColor=none;strokeColor=#232F3E;fillColor=#ffffff;dashed=0;verticalLabelPosition=bottom;verticalAlign=top;align=center;html=1;fontSize=12;fontStyle=0;aspect=fixed;shape=mxgraph.aws4.resourceIcon;resIcon=mxgraph.aws4.user;" vertex="1" parent="2B-mcIdksEckaIwedj74-27">
          <mxGeometry x="9.879999999999999" y="3.750000000000001" width="17.76" height="17.76" as="geometry" />
        </mxCell>
        <mxCell id="2B-mcIdksEckaIwedj74-22" value="Manuel" style="sketch=0;outlineConnect=0;fontColor=#232F3E;gradientColor=none;strokeColor=#232F3E;fillColor=#ffffff;dashed=0;verticalLabelPosition=bottom;verticalAlign=top;align=center;html=1;fontSize=12;fontStyle=0;aspect=fixed;shape=mxgraph.aws4.resourceIcon;resIcon=mxgraph.aws4.user;" vertex="1" parent="2B-mcIdksEckaIwedj74-27">
          <mxGeometry x="50.03999999999999" y="4.5" width="17.76" height="17.76" as="geometry" />
        </mxCell>
        <mxCell id="2B-mcIdksEckaIwedj74-25" value="Maria" style="sketch=0;outlineConnect=0;fontColor=#232F3E;gradientColor=none;strokeColor=#232F3E;fillColor=#ffffff;dashed=0;verticalLabelPosition=bottom;verticalAlign=top;align=center;html=1;fontSize=12;fontStyle=0;aspect=fixed;shape=mxgraph.aws4.resourceIcon;resIcon=mxgraph.aws4.user;" vertex="1" parent="2B-mcIdksEckaIwedj74-27">
          <mxGeometry x="8.879999999999999" y="47.25" width="17.76" height="17.76" as="geometry" />
        </mxCell>
        <mxCell id="2B-mcIdksEckaIwedj74-26" value="Carlos" style="sketch=0;outlineConnect=0;fontColor=#232F3E;gradientColor=none;strokeColor=#232F3E;fillColor=#ffffff;dashed=0;verticalLabelPosition=bottom;verticalAlign=top;align=center;html=1;fontSize=12;fontStyle=0;aspect=fixed;shape=mxgraph.aws4.resourceIcon;resIcon=mxgraph.aws4.user;" vertex="1" parent="2B-mcIdksEckaIwedj74-27">
          <mxGeometry x="51.03999999999999" y="48.00000000000001" width="17.76" height="17.76" as="geometry" />
        </mxCell>
        <mxCell id="2B-mcIdksEckaIwedj74-28" value="" style="endArrow=none;html=1;rounded=0;entryX=1;entryY=0.5;entryDx=0;entryDy=0;exitX=0;exitY=0.5;exitDx=0;exitDy=0;exitPerimeter=0;" edge="1" parent="1" source="2B-mcIdksEckaIwedj74-1" target="2B-mcIdksEckaIwedj74-19">
          <mxGeometry width="50" height="50" relative="1" as="geometry">
            <mxPoint x="346" y="200" as="sourcePoint" />
            <mxPoint x="260" y="155" as="targetPoint" />
          </mxGeometry>
        </mxCell>
        <mxCell id="2B-mcIdksEckaIwedj74-29" value="" style="group" vertex="1" connectable="0" parent="1">
          <mxGeometry x="70" y="220" width="84" height="90" as="geometry" />
        </mxCell>
        <mxCell id="2B-mcIdksEckaIwedj74-30" value="" style="rounded=1;whiteSpace=wrap;html=1;" vertex="1" parent="2B-mcIdksEckaIwedj74-29">
          <mxGeometry width="84" height="90" as="geometry" />
        </mxCell>
        <mxCell id="2B-mcIdksEckaIwedj74-31" value="Jorge" style="sketch=0;outlineConnect=0;fontColor=#232F3E;gradientColor=none;strokeColor=#232F3E;fillColor=#ffffff;dashed=0;verticalLabelPosition=bottom;verticalAlign=top;align=center;html=1;fontSize=12;fontStyle=0;aspect=fixed;shape=mxgraph.aws4.resourceIcon;resIcon=mxgraph.aws4.user;" vertex="1" parent="2B-mcIdksEckaIwedj74-29">
          <mxGeometry x="9.879999999999999" y="3.750000000000001" width="17.76" height="17.76" as="geometry" />
        </mxCell>
        <mxCell id="2B-mcIdksEckaIwedj74-32" value="Afonso" style="sketch=0;outlineConnect=0;fontColor=#232F3E;gradientColor=none;strokeColor=#232F3E;fillColor=#ffffff;dashed=0;verticalLabelPosition=bottom;verticalAlign=top;align=center;html=1;fontSize=12;fontStyle=0;aspect=fixed;shape=mxgraph.aws4.resourceIcon;resIcon=mxgraph.aws4.user;" vertex="1" parent="2B-mcIdksEckaIwedj74-29">
          <mxGeometry x="50.03999999999999" y="4.5" width="17.76" height="17.76" as="geometry" />
        </mxCell>
        <mxCell id="2B-mcIdksEckaIwedj74-33" value="Maria" style="sketch=0;outlineConnect=0;fontColor=#232F3E;gradientColor=none;strokeColor=#232F3E;fillColor=#ffffff;dashed=0;verticalLabelPosition=bottom;verticalAlign=top;align=center;html=1;fontSize=12;fontStyle=0;aspect=fixed;shape=mxgraph.aws4.resourceIcon;resIcon=mxgraph.aws4.user;" vertex="1" parent="2B-mcIdksEckaIwedj74-29">
          <mxGeometry x="8.879999999999999" y="47.25" width="17.76" height="17.76" as="geometry" />
        </mxCell>
        <mxCell id="2B-mcIdksEckaIwedj74-34" value="Miguel" style="sketch=0;outlineConnect=0;fontColor=#232F3E;gradientColor=none;strokeColor=#232F3E;fillColor=#ffffff;dashed=0;verticalLabelPosition=bottom;verticalAlign=top;align=center;html=1;fontSize=12;fontStyle=0;aspect=fixed;shape=mxgraph.aws4.resourceIcon;resIcon=mxgraph.aws4.user;" vertex="1" parent="2B-mcIdksEckaIwedj74-29">
          <mxGeometry x="51.03999999999999" y="48.00000000000001" width="17.76" height="17.76" as="geometry" />
        </mxCell>
        <mxCell id="2B-mcIdksEckaIwedj74-35" value="" style="endArrow=none;html=1;rounded=0;entryX=1;entryY=0.5;entryDx=0;entryDy=0;exitX=0.15;exitY=0.5;exitDx=0;exitDy=0;exitPerimeter=0;" edge="1" parent="1" source="2B-mcIdksEckaIwedj74-5" target="2B-mcIdksEckaIwedj74-30">
          <mxGeometry width="50" height="50" relative="1" as="geometry">
            <mxPoint x="200" y="155" as="sourcePoint" />
            <mxPoint x="164" y="155" as="targetPoint" />
          </mxGeometry>
        </mxCell>
        <mxCell id="2B-mcIdksEckaIwedj74-43" value="" style="group" vertex="1" connectable="0" parent="1">
          <mxGeometry x="348" y="54" width="84" height="90" as="geometry" />
        </mxCell>
        <mxCell id="2B-mcIdksEckaIwedj74-44" value="" style="rounded=1;whiteSpace=wrap;html=1;" vertex="1" parent="2B-mcIdksEckaIwedj74-43">
          <mxGeometry width="84" height="90" as="geometry" />
        </mxCell>
        <mxCell id="2B-mcIdksEckaIwedj74-45" value="José" style="sketch=0;outlineConnect=0;fontColor=#232F3E;gradientColor=none;strokeColor=#232F3E;fillColor=#ffffff;dashed=0;verticalLabelPosition=bottom;verticalAlign=top;align=center;html=1;fontSize=12;fontStyle=0;aspect=fixed;shape=mxgraph.aws4.resourceIcon;resIcon=mxgraph.aws4.user;" vertex="1" parent="2B-mcIdksEckaIwedj74-43">
          <mxGeometry x="9.879999999999999" y="3.750000000000001" width="17.76" height="17.76" as="geometry" />
        </mxCell>
        <mxCell id="2B-mcIdksEckaIwedj74-46" value="Afonso" style="sketch=0;outlineConnect=0;fontColor=#232F3E;gradientColor=none;strokeColor=#232F3E;fillColor=#ffffff;dashed=0;verticalLabelPosition=bottom;verticalAlign=top;align=center;html=1;fontSize=12;fontStyle=0;aspect=fixed;shape=mxgraph.aws4.resourceIcon;resIcon=mxgraph.aws4.user;" vertex="1" parent="2B-mcIdksEckaIwedj74-43">
          <mxGeometry x="50.03999999999999" y="4.5" width="17.76" height="17.76" as="geometry" />
        </mxCell>
        <mxCell id="2B-mcIdksEckaIwedj74-47" value="Maria" style="sketch=0;outlineConnect=0;fontColor=#232F3E;gradientColor=none;strokeColor=#232F3E;fillColor=#ffffff;dashed=0;verticalLabelPosition=bottom;verticalAlign=top;align=center;html=1;fontSize=12;fontStyle=0;aspect=fixed;shape=mxgraph.aws4.resourceIcon;resIcon=mxgraph.aws4.user;" vertex="1" parent="2B-mcIdksEckaIwedj74-43">
          <mxGeometry x="8.879999999999999" y="47.25" width="17.76" height="17.76" as="geometry" />
        </mxCell>
        <mxCell id="2B-mcIdksEckaIwedj74-48" value="Luis" style="sketch=0;outlineConnect=0;fontColor=#232F3E;gradientColor=none;strokeColor=#232F3E;fillColor=#ffffff;dashed=0;verticalLabelPosition=bottom;verticalAlign=top;align=center;html=1;fontSize=12;fontStyle=0;aspect=fixed;shape=mxgraph.aws4.resourceIcon;resIcon=mxgraph.aws4.user;" vertex="1" parent="2B-mcIdksEckaIwedj74-43">
          <mxGeometry x="51.03999999999999" y="48.00000000000001" width="17.76" height="17.76" as="geometry" />
        </mxCell>
        <mxCell id="2B-mcIdksEckaIwedj74-53" value="" style="endArrow=none;html=1;rounded=0;entryX=0.893;entryY=1.011;entryDx=0;entryDy=0;exitX=0;exitY=0.5;exitDx=0;exitDy=0;exitPerimeter=0;entryPerimeter=0;" edge="1" parent="1" source="2B-mcIdksEckaIwedj74-2" target="2B-mcIdksEckaIwedj74-44">
          <mxGeometry width="50" height="50" relative="1" as="geometry">
            <mxPoint x="200" y="155" as="sourcePoint" />
            <mxPoint x="164" y="155" as="targetPoint" />
          </mxGeometry>
        </mxCell>
        <mxCell id="2B-mcIdksEckaIwedj74-55" value="" style="group" vertex="1" connectable="0" parent="1">
          <mxGeometry x="570" y="220" width="84" height="90" as="geometry" />
        </mxCell>
        <mxCell id="2B-mcIdksEckaIwedj74-56" value="" style="rounded=1;whiteSpace=wrap;html=1;" vertex="1" parent="2B-mcIdksEckaIwedj74-55">
          <mxGeometry width="84" height="90" as="geometry" />
        </mxCell>
        <mxCell id="2B-mcIdksEckaIwedj74-57" value="José" style="sketch=0;outlineConnect=0;fontColor=#232F3E;gradientColor=none;strokeColor=#232F3E;fillColor=#ffffff;dashed=0;verticalLabelPosition=bottom;verticalAlign=top;align=center;html=1;fontSize=12;fontStyle=0;aspect=fixed;shape=mxgraph.aws4.resourceIcon;resIcon=mxgraph.aws4.user;" vertex="1" parent="2B-mcIdksEckaIwedj74-55">
          <mxGeometry x="9.879999999999999" y="3.750000000000001" width="17.76" height="17.76" as="geometry" />
        </mxCell>
        <mxCell id="2B-mcIdksEckaIwedj74-58" value="Afonso" style="sketch=0;outlineConnect=0;fontColor=#232F3E;gradientColor=none;strokeColor=#232F3E;fillColor=#ffffff;dashed=0;verticalLabelPosition=bottom;verticalAlign=top;align=center;html=1;fontSize=12;fontStyle=0;aspect=fixed;shape=mxgraph.aws4.resourceIcon;resIcon=mxgraph.aws4.user;" vertex="1" parent="2B-mcIdksEckaIwedj74-55">
          <mxGeometry x="50.03999999999999" y="4.5" width="17.76" height="17.76" as="geometry" />
        </mxCell>
        <mxCell id="2B-mcIdksEckaIwedj74-59" value="Maria" style="sketch=0;outlineConnect=0;fontColor=#232F3E;gradientColor=none;strokeColor=#232F3E;fillColor=#ffffff;dashed=0;verticalLabelPosition=bottom;verticalAlign=top;align=center;html=1;fontSize=12;fontStyle=0;aspect=fixed;shape=mxgraph.aws4.resourceIcon;resIcon=mxgraph.aws4.user;" vertex="1" parent="2B-mcIdksEckaIwedj74-55">
          <mxGeometry x="8.879999999999999" y="47.25" width="17.76" height="17.76" as="geometry" />
        </mxCell>
        <mxCell id="2B-mcIdksEckaIwedj74-60" value="Luis" style="sketch=0;outlineConnect=0;fontColor=#232F3E;gradientColor=none;strokeColor=#232F3E;fillColor=#ffffff;dashed=0;verticalLabelPosition=bottom;verticalAlign=top;align=center;html=1;fontSize=12;fontStyle=0;aspect=fixed;shape=mxgraph.aws4.resourceIcon;resIcon=mxgraph.aws4.user;" vertex="1" parent="2B-mcIdksEckaIwedj74-55">
          <mxGeometry x="51.03999999999999" y="48.00000000000001" width="17.76" height="17.76" as="geometry" />
        </mxCell>
        <mxCell id="2B-mcIdksEckaIwedj74-62" value="" style="endArrow=none;html=1;rounded=0;entryX=0;entryY=0.5;entryDx=0;entryDy=0;exitX=1;exitY=0.5;exitDx=0;exitDy=0;exitPerimeter=0;" edge="1" parent="1" source="2B-mcIdksEckaIwedj74-13" target="2B-mcIdksEckaIwedj74-56">
          <mxGeometry width="50" height="50" relative="1" as="geometry">
            <mxPoint x="480" y="155" as="sourcePoint" />
            <mxPoint x="433" y="155" as="targetPoint" />
          </mxGeometry>
        </mxCell>
      </root>
    </mxGraphModel>
  </diagram>
</mxfile>
